<?xml version="1.0" encoding="UTF-8" standalone="no"?>
<!DOCTYPE svg PUBLIC "-//W3C//DTD SVG 1.1//EN"
 "http://www.w3.org/Graphics/SVG/1.1/DTD/svg11.dtd">
<!-- Generated by graphviz version 2.49.3 (0)
 -->
<!-- Title: snakemake_dag Pages: 1 -->
<svg width="264pt" height="548pt"
 viewBox="0.00 0.00 264.00 548.00" xmlns="http://www.w3.org/2000/svg" xmlns:xlink="http://www.w3.org/1999/xlink">
<g id="graph0" class="graph" transform="scale(1 1) rotate(0) translate(4 544)">
<title>snakemake_dag</title>
<polygon fill="white" stroke="transparent" points="-4,4 -4,-544 260,-544 260,4 -4,4"/>
<!-- 0 -->
<g id="node1" class="node">
<title>0</title>
<path fill="none" stroke="#d6d856" stroke-width="2" d="M148.5,-36C148.5,-36 32.5,-36 32.5,-36 26.5,-36 20.5,-30 20.5,-24 20.5,-24 20.5,-12 20.5,-12 20.5,-6 26.5,0 32.5,0 32.5,0 148.5,0 148.5,0 154.5,0 160.5,-6 160.5,-12 160.5,-12 160.5,-24 160.5,-24 160.5,-30 154.5,-36 148.5,-36"/>
<text text-anchor="middle" x="90.5" y="-15.5" font-family="sans" font-size="10.00">generate_phylogenetic_tree</text>
</g>
<!-- 1 -->
<g id="node2" class="node">
<title>1</title>
<path fill="none" stroke="#59d856" stroke-width="2" d="M138.5,-108C138.5,-108 42.5,-108 42.5,-108 36.5,-108 30.5,-102 30.5,-96 30.5,-96 30.5,-84 30.5,-84 30.5,-78 36.5,-72 42.5,-72 42.5,-72 138.5,-72 138.5,-72 144.5,-72 150.5,-78 150.5,-84 150.5,-84 150.5,-96 150.5,-96 150.5,-102 144.5,-108 138.5,-108"/>
<text text-anchor="middle" x="90.5" y="-87.5" font-family="sans" font-size="10.00">msa_merged_PETases</text>
</g>
<!-- 1&#45;&gt;0 -->
<g id="edge1" class="edge">
<title>1&#45;&gt;0</title>
<path fill="none" stroke="grey" stroke-width="2" d="M90.5,-71.7C90.5,-63.98 90.5,-54.71 90.5,-46.11"/>
<polygon fill="grey" stroke="grey" stroke-width="2" points="94,-46.1 90.5,-36.1 87,-46.1 94,-46.1"/>
</g>
<!-- 2 -->
<g id="node3" class="node">
<title>2</title>
<path fill="none" stroke="#d89556" stroke-width="2" d="M131,-180C131,-180 50,-180 50,-180 44,-180 38,-174 38,-168 38,-168 38,-156 38,-156 38,-150 44,-144 50,-144 50,-144 131,-144 131,-144 137,-144 143,-150 143,-156 143,-156 143,-168 143,-168 143,-174 137,-180 131,-180"/>
<text text-anchor="middle" x="90.5" y="-159.5" font-family="sans" font-size="10.00">merge_all_PETases</text>
</g>
<!-- 2&#45;&gt;1 -->
<g id="edge2" class="edge">
<title>2&#45;&gt;1</title>
<path fill="none" stroke="grey" stroke-width="2" d="M90.5,-143.7C90.5,-135.98 90.5,-126.71 90.5,-118.11"/>
<polygon fill="grey" stroke="grey" stroke-width="2" points="94,-118.1 90.5,-108.1 87,-118.1 94,-118.1"/>
</g>
<!-- 3 -->
<g id="node4" class="node">
<title>3</title>
<path fill="none" stroke="#97d856" stroke-width="2" d="M244,-252C244,-252 67,-252 67,-252 61,-252 55,-246 55,-240 55,-240 55,-228 55,-228 55,-222 61,-216 67,-216 67,-216 244,-216 244,-216 250,-216 256,-222 256,-228 256,-228 256,-240 256,-240 256,-246 250,-252 244,-252"/>
<text text-anchor="middle" x="155.5" y="-237" font-family="sans" font-size="10.00">run_HMM_search_from_known_PETases</text>
<text text-anchor="middle" x="155.5" y="-226" font-family="sans" font-size="10.00">metagenomic_dataset: 2140918008.a.faa</text>
</g>
<!-- 3&#45;&gt;2 -->
<g id="edge3" class="edge">
<title>3&#45;&gt;2</title>
<path fill="none" stroke="grey" stroke-width="2" d="M139.43,-215.7C131.56,-207.22 121.94,-196.86 113.33,-187.58"/>
<polygon fill="grey" stroke="grey" stroke-width="2" points="115.75,-185.05 106.38,-180.1 110.62,-189.81 115.75,-185.05"/>
</g>
<!-- 4 -->
<g id="node5" class="node">
<title>4</title>
<path fill="none" stroke="#d85656" stroke-width="2" d="M221.5,-324C221.5,-324 73.5,-324 73.5,-324 67.5,-324 61.5,-318 61.5,-312 61.5,-312 61.5,-300 61.5,-300 61.5,-294 67.5,-288 73.5,-288 73.5,-288 221.5,-288 221.5,-288 227.5,-288 233.5,-294 233.5,-300 233.5,-300 233.5,-312 233.5,-312 233.5,-318 227.5,-324 221.5,-324"/>
<text text-anchor="middle" x="147.5" y="-303.5" font-family="sans" font-size="10.00">build_HMM_from_known_PETases</text>
</g>
<!-- 4&#45;&gt;3 -->
<g id="edge5" class="edge">
<title>4&#45;&gt;3</title>
<path fill="none" stroke="grey" stroke-width="2" d="M149.48,-287.7C150.36,-279.98 151.42,-270.71 152.4,-262.11"/>
<polygon fill="grey" stroke="grey" stroke-width="2" points="155.89,-262.44 153.55,-252.1 148.93,-261.64 155.89,-262.44"/>
</g>
<!-- 5 -->
<g id="node6" class="node">
<title>5</title>
<path fill="none" stroke="#56d89a" stroke-width="2" d="M173,-396C173,-396 80,-396 80,-396 74,-396 68,-390 68,-384 68,-384 68,-372 68,-372 68,-366 74,-360 80,-360 80,-360 173,-360 173,-360 179,-360 185,-366 185,-372 185,-372 185,-384 185,-384 185,-390 179,-396 173,-396"/>
<text text-anchor="middle" x="126.5" y="-375.5" font-family="sans" font-size="10.00">convert_clustal_format</text>
</g>
<!-- 5&#45;&gt;4 -->
<g id="edge6" class="edge">
<title>5&#45;&gt;4</title>
<path fill="none" stroke="grey" stroke-width="2" d="M131.69,-359.7C134.03,-351.9 136.85,-342.51 139.45,-333.83"/>
<polygon fill="grey" stroke="grey" stroke-width="2" points="142.85,-334.69 142.37,-324.1 136.14,-332.68 142.85,-334.69"/>
</g>
<!-- 6 -->
<g id="node7" class="node">
<title>6</title>
<path fill="none" stroke="#56d8d8" stroke-width="2" d="M158,-468C158,-468 67,-468 67,-468 61,-468 55,-462 55,-456 55,-456 55,-444 55,-444 55,-438 61,-432 67,-432 67,-432 158,-432 158,-432 164,-432 170,-438 170,-444 170,-444 170,-456 170,-456 170,-462 164,-468 158,-468"/>
<text text-anchor="middle" x="112.5" y="-447.5" font-family="sans" font-size="10.00">msa_known_PETases</text>
</g>
<!-- 6&#45;&gt;5 -->
<g id="edge7" class="edge">
<title>6&#45;&gt;5</title>
<path fill="none" stroke="grey" stroke-width="2" d="M115.96,-431.7C117.5,-423.98 119.36,-414.71 121.08,-406.11"/>
<polygon fill="grey" stroke="grey" stroke-width="2" points="124.55,-406.6 123.08,-396.1 117.69,-405.22 124.55,-406.6"/>
</g>
<!-- 7 -->
<g id="node8" class="node">
<title>7</title>
<path fill="none" stroke="#569ad8" stroke-width="2" d="M127,-540C127,-540 12,-540 12,-540 6,-540 0,-534 0,-528 0,-528 0,-516 0,-516 0,-510 6,-504 12,-504 12,-504 127,-504 127,-504 133,-504 139,-510 139,-516 139,-516 139,-528 139,-528 139,-534 133,-540 127,-540"/>
<text text-anchor="middle" x="69.5" y="-519.5" font-family="sans" font-size="10.00">download_known_PETases</text>
</g>
<!-- 7&#45;&gt;2 -->
<g id="edge4" class="edge">
<title>7&#45;&gt;2</title>
<path fill="none" stroke="grey" stroke-width="2" d="M60.59,-503.58C48,-477.3 26.5,-425.62 26.5,-379 26.5,-379 26.5,-379 26.5,-305 26.5,-264.55 27.65,-252.29 45.5,-216 50.51,-205.82 57.9,-195.97 65.26,-187.59"/>
<polygon fill="grey" stroke="grey" stroke-width="2" points="68.02,-189.76 72.21,-180.03 62.87,-185.01 68.02,-189.76"/>
</g>
<!-- 7&#45;&gt;6 -->
<g id="edge8" class="edge">
<title>7&#45;&gt;6</title>
<path fill="none" stroke="grey" stroke-width="2" d="M80.13,-503.7C85.13,-495.56 91.19,-485.69 96.71,-476.7"/>
<polygon fill="grey" stroke="grey" stroke-width="2" points="99.74,-478.46 101.99,-468.1 93.78,-474.79 99.74,-478.46"/>
</g>
</g>
</svg>
